<svg width="32" height="32" viewBox="0 0 32 32" fill="none" xmlns="http://www.w3.org/2000/svg">
<rect width="32" height="32" fill="white"/>
<g clip-path="url(#clip0)">
<path d="M0 16V32H16H32V16V0H16H0V16ZM18.2967 3.1089C18.3832 3.18861 18.4216 3.19431 18.5626 3.13167C18.7483 3.05196 18.8316 3.04626 19.2192 3.06904C19.3698 3.07473 19.4691 3.09751 19.4434 3.11459C19.4178 3.13167 19.3826 3.18292 19.3698 3.22278C19.357 3.26833 19.2897 3.30249 19.2224 3.30249C19.0879 3.30249 18.8124 3.53594 18.7451 3.70676C18.7227 3.7637 18.6811 3.81495 18.6555 3.81495C18.6298 3.81495 18.5786 3.86619 18.5401 3.92883C18.5017 3.99146 18.4633 4.02562 18.4537 4.01423C18.444 3.99715 18.4761 3.91744 18.5241 3.83772C18.5722 3.75801 18.6106 3.67829 18.6106 3.64982C18.6106 3.62705 18.5626 3.55872 18.5017 3.50178C18.396 3.39929 18.3928 3.39929 18.2871 3.51886C18.2262 3.5815 18.1205 3.74092 18.0533 3.86619C17.9347 4.08256 17.9283 4.10534 17.97 4.25338C18.0308 4.49253 18.0629 4.77722 18.0308 4.81139C17.9988 4.85125 17.8194 4.35587 17.7938 4.15658C17.7842 4.07687 17.7361 3.92883 17.6849 3.82064L17.5984 3.63274L17.4927 3.86619C17.3518 4.17936 17.3005 4.10534 17.4318 3.78078L17.5343 3.52456L17.4639 3.40498C17.3197 3.14306 17.1211 3.2968 16.9578 3.79217C16.8905 3.99715 16.8809 4.07117 16.9001 4.35018C16.9321 4.84555 16.8713 4.74306 16.7367 4.07117C16.6695 3.74662 16.599 3.42776 16.5734 3.37651C16.5349 3.27971 16.5317 3.27971 16.4869 3.38221C16.4613 3.44484 16.4164 3.63274 16.3876 3.79786C16.3363 4.07687 16.2723 4.20214 16.2723 4.01993C16.2723 3.8605 16.4036 3.2 16.4452 3.13167C16.5445 2.98932 16.6374 3.08612 16.7367 3.45623C16.7912 3.64982 16.8392 3.80925 16.8488 3.80925C16.8585 3.81495 16.8841 3.74662 16.9033 3.65552C16.9257 3.57011 16.9962 3.40498 17.0603 3.28541C17.2076 3.01779 17.3774 2.99502 17.5439 3.22278C17.6432 3.35943 17.6593 3.36512 17.7073 3.27971C17.8643 3.02918 18.1269 2.95516 18.2967 3.1089ZM13.7097 3.21139C13.7546 3.25125 13.8218 3.31957 13.8603 3.35943C13.9243 3.43345 13.9403 3.42776 14.0044 3.31957C14.1165 3.13737 14.2126 3.06904 14.2991 3.1089C14.3952 3.14875 14.581 3.49609 14.6643 3.78648C14.7091 3.94021 14.7347 3.98577 14.7443 3.92883C14.754 3.88327 14.7828 3.71815 14.8116 3.56441C14.9365 2.88114 15.0999 2.92669 15.2184 3.67829C15.2761 4.0484 15.2729 4.19075 15.2152 4.12811C15.1992 4.11103 15.1704 3.98577 15.1512 3.8548C15.1095 3.5758 15.0551 3.35943 15.023 3.35943C14.991 3.35943 14.9493 3.54733 14.8372 4.20783C14.7347 4.81139 14.6482 4.98221 14.6867 4.5153C14.7059 4.25908 14.6963 4.20214 14.5938 3.88327C14.4785 3.53594 14.3471 3.30249 14.2671 3.30249C14.2414 3.30249 14.1774 3.37651 14.1197 3.46762L14.0172 3.63274L14.1037 3.83203C14.2478 4.17367 14.2094 4.28185 14.0557 3.96868C14.0044 3.87189 13.9564 3.80925 13.9467 3.84342C13.8442 4.22491 13.6873 4.68612 13.6617 4.67473C13.5944 4.65196 13.6488 4.2363 13.7546 3.92883L13.8667 3.61566L13.7962 3.51886C13.6585 3.31957 13.3349 3.25694 13.2805 3.41068C13.2709 3.43345 13.351 3.57011 13.4567 3.71815C13.5592 3.86619 13.6456 4.02562 13.6456 4.07117C13.6456 4.20214 13.62 4.17936 13.415 3.84342C13.3125 3.6726 13.2068 3.53025 13.1876 3.53025C13.1652 3.53594 13.1075 3.59858 13.0531 3.6726L12.9602 3.80925L13.0306 3.94591C13.1235 4.12242 13.1203 4.19075 13.021 4.07687C12.9794 4.02562 12.9217 3.98577 12.8961 3.98577C12.8705 3.98577 12.8384 3.93452 12.8288 3.86619C12.8 3.70676 12.4444 3.40498 12.3419 3.45053C12.2907 3.47331 12.2426 3.45053 12.201 3.38221C12.1658 3.32527 12.0761 3.26263 12.0024 3.23986C11.8999 3.21139 11.9383 3.2 12.1562 3.2C12.3163 3.2 12.5277 3.18292 12.627 3.16014C12.7616 3.13167 12.8513 3.14306 12.9634 3.20569C13.1075 3.2911 13.1299 3.28541 13.2933 3.18861C13.4695 3.08043 13.5624 3.08612 13.7097 3.21139ZM15.8655 3.50178C15.8783 3.72384 15.8847 4.35018 15.8815 4.8968C15.8719 5.72811 15.8655 5.89324 15.8238 5.91032C15.7886 5.92171 15.7758 5.86477 15.7726 5.71103C15.7694 5.59146 15.7598 5.30107 15.7469 5.06762C15.7085 4.16797 15.6925 3.18861 15.7117 3.13167C15.7245 3.09751 15.7566 3.07473 15.7854 3.08612C15.827 3.09751 15.8462 3.2 15.8655 3.50178ZM14.7828 12.2135C14.9301 12.4698 14.8565 12.8854 14.6547 12.9594C14.4176 13.0391 14.2767 12.4584 14.4657 12.1907C14.5778 12.0313 14.6867 12.0427 14.7828 12.2135ZM9.28929 12.4982C9.28929 12.8228 9.27968 12.874 9.21882 12.931C9.11632 13.0278 9.0971 13.0904 9.0971 13.3637C9.0971 13.5972 9.1003 13.6085 9.19319 13.6085C9.28929 13.6085 9.28929 13.6142 9.28929 13.916C9.28929 14.2121 9.28609 14.2292 9.2028 14.2463L9.11311 14.2633L9.0971 16.5409C9.08428 18.3345 9.07147 18.8527 9.03624 18.9722C8.97217 19.1943 8.77678 19.4164 8.62943 19.4335L8.5045 19.4448L8.49489 19.069C8.48529 18.7217 8.49169 18.6932 8.56537 18.6306C8.67748 18.5395 8.68388 18.3744 8.67427 16.1708L8.66466 14.2633L8.57498 14.2463C8.48849 14.2292 8.48529 14.2178 8.49489 13.9331C8.5045 13.6598 8.51091 13.637 8.59419 13.6199C8.67748 13.6028 8.68068 13.5915 8.68068 13.2498C8.68388 12.5722 8.87608 12.1452 9.18679 12.1338L9.28929 12.1281V12.4982ZM18.3992 12.1851C18.4793 12.2363 18.4825 12.2591 18.4825 12.6463V13.0505L18.3832 13.0164C18.2967 12.9879 18.2679 13.0107 18.1814 13.1758C18.0501 13.4206 18.0116 13.6655 17.9636 14.531C17.9347 15.0719 17.9347 15.4363 17.9636 16.0626C18.0052 16.9964 18.0436 17.2527 18.1686 17.4918C18.2422 17.6342 18.2775 17.6569 18.3704 17.6399L18.4825 17.6171V18.0214C18.4825 18.2605 18.4665 18.4541 18.444 18.4939C18.3768 18.6135 18.0885 18.5794 17.9668 18.4313C17.7393 18.1637 17.5568 17.4633 17.4831 16.5808C17.435 15.9943 17.435 14.6505 17.4831 14.121C17.6176 12.7146 17.9956 11.9117 18.3992 12.1851ZM14.1646 14.9979C14.1742 17.6569 14.1774 17.8164 14.235 17.9302C14.2927 18.0441 14.2927 18.0498 14.1421 18.306C14.0557 18.4484 13.9692 18.5623 13.9467 18.5623C13.9243 18.5623 13.8699 18.4826 13.825 18.3858L13.7417 18.2093V15.1972V12.1851H13.9467H14.155L14.1646 14.9979ZM20.8208 14.9011C20.8208 16.8256 20.8304 17.6683 20.8593 17.7993C20.8913 17.9644 20.8849 18.01 20.792 18.2719C20.7343 18.4313 20.6671 18.5623 20.6446 18.5623C20.6222 18.5623 20.5646 18.4826 20.5165 18.3801L20.43 18.1979L20.35 18.3801C20.2891 18.5224 20.2474 18.5623 20.161 18.5623C20.0168 18.5623 19.9111 18.363 19.8406 17.9701C19.7638 17.5374 19.7413 15.6185 19.8054 14.9751C19.8823 14.1836 20.0488 13.711 20.2795 13.6256L20.3724 13.5915V12.8911V12.1851H20.5966H20.8208V14.9011ZM13.3574 13.21V13.6085H13.4695H13.5816V13.916C13.5816 14.2235 13.5816 14.2292 13.4791 14.2463L13.3734 14.2633L13.3638 15.8918C13.3606 16.8712 13.3702 17.5829 13.3894 17.674C13.4118 17.7822 13.4438 17.8221 13.5015 17.8221C13.5784 17.8221 13.5816 17.8391 13.5816 18.1352C13.5816 18.4939 13.5399 18.5623 13.3157 18.5623C13.1459 18.5623 13.0242 18.3801 12.973 18.0555C12.9538 17.9359 12.9409 17.0819 12.9409 16.0399V14.2349H12.8288C12.6815 14.2349 12.6847 14.1381 12.8384 13.8192C12.9025 13.6826 13.0242 13.3979 13.1075 13.1872C13.3093 12.6861 13.3574 12.6918 13.3574 13.21ZM23.4987 12.9423C23.5147 13.0278 23.3065 14.0641 22.3744 18.5452C22.163 19.5644 22.1534 19.5872 22.0669 19.5872C21.9964 19.5872 21.974 19.5587 21.974 19.479C21.974 19.4164 22.0893 18.8071 22.2334 18.1238C22.3776 17.4406 22.5473 16.6149 22.6146 16.2847C22.7876 15.4249 23.2456 13.21 23.2841 13.0221C23.3097 12.9082 23.3385 12.8683 23.3994 12.8683C23.4442 12.8683 23.4891 12.9025 23.4987 12.9423ZM8.19379 13.8192C8.2034 13.9843 8.18098 14.0185 7.53073 14.7758C7.15916 15.2028 6.86126 15.573 6.87087 15.6014C6.87728 15.6242 7.18158 15.9829 7.54034 16.4043L8.197 17.1673L8.2002 17.6057C8.2002 17.8448 8.18418 18.0612 8.16817 18.0783C8.12973 18.1238 6.24625 15.8975 6.24625 15.8064C6.24625 15.7722 6.50571 15.4477 6.82282 15.089C7.13994 14.7302 7.56276 14.2463 7.76136 14.0242C7.95676 13.7964 8.13614 13.6199 8.15215 13.6256C8.17137 13.637 8.18739 13.7224 8.19379 13.8192ZM9.73774 13.7224C9.77297 13.7851 9.81141 13.916 9.82422 14.0071C9.84665 14.2121 9.88509 14.2292 9.91071 14.047C9.93954 13.842 10.0773 13.6085 10.1702 13.6085C10.2502 13.6085 10.2502 13.6142 10.2502 14.0584V14.5082L10.151 14.5822C10.0933 14.6221 10.01 14.7644 9.95876 14.9125L9.86587 15.1687V16.8655V18.5623H9.66086H9.45265L9.44304 16.427C9.43664 14.8214 9.42382 14.2804 9.39499 14.2235C9.33413 14.121 9.34054 14.0868 9.46867 13.8363C9.6 13.5801 9.64485 13.5573 9.73774 13.7224ZM11.0671 13.7452C11.2689 14.1039 11.3714 14.884 11.3714 16.0797C11.3714 17.2527 11.2657 18.0726 11.0703 18.4199C11.0094 18.5281 10.955 18.5623 10.8557 18.5623C10.6699 18.5623 10.5321 18.2947 10.436 17.748C10.3688 17.3722 10.3624 17.2299 10.3624 16.0854C10.3624 14.9409 10.3688 14.7986 10.436 14.4228C10.5321 13.8762 10.6699 13.6085 10.8557 13.6085C10.955 13.6085 11.0094 13.6427 11.0671 13.7452ZM11.8743 13.7566L11.9544 13.8989L12.0408 13.7566C12.1562 13.563 12.3548 13.5516 12.4541 13.7338C12.5822 13.9843 12.5886 14.1096 12.5886 16.3758V18.5623H12.3804H12.1722V16.5181C12.1722 14.7815 12.1658 14.4683 12.1241 14.4057C12.0985 14.3658 12.0537 14.3488 12.028 14.3715C11.9864 14.4 11.98 14.679 11.98 16.484V18.5623H11.7718H11.5636V16.4954C11.5636 14.8726 11.554 14.4 11.5187 14.2861C11.4803 14.1495 11.4835 14.121 11.5924 13.8705C11.6533 13.7281 11.7237 13.6085 11.7493 13.6085C11.7718 13.6085 11.8262 13.6769 11.8743 13.7566ZM14.8308 16.0854V18.5623H14.6226H14.4144V16.0854V13.6085H14.6226H14.8308V16.0854ZM15.3658 13.7566L15.4458 13.8989L15.5323 13.7566C15.6476 13.563 15.8462 13.5516 15.9455 13.7338C16.0737 13.9843 16.0801 14.1096 16.0801 16.3758V18.5623H15.8719H15.6637V16.5808C15.6637 15.4932 15.6541 14.548 15.6444 14.474C15.6284 14.3829 15.6028 14.3488 15.5548 14.3601C15.4875 14.3772 15.4875 14.3886 15.4779 16.4669L15.4715 18.5623H15.2633H15.0583L15.0486 16.4384C15.0422 14.8327 15.0294 14.2861 14.9974 14.2235C14.9654 14.1495 14.9782 14.0925 15.0775 13.8705C15.1447 13.7281 15.2184 13.6085 15.2408 13.6085C15.2633 13.6085 15.3177 13.6769 15.3658 13.7566ZM17.0122 13.6996C17.1435 13.8192 17.2685 14.3032 17.2877 14.7701C17.3229 15.5388 17.1692 16.1537 16.8681 16.4555C16.7015 16.6263 16.6919 16.6434 16.7079 16.8142C16.7528 17.247 16.7912 17.4235 16.8809 17.5943C16.9706 17.7651 16.993 17.7765 17.1211 17.7537L17.2653 17.7196V18.1466V18.5737L17.0314 18.5509C16.8296 18.5338 16.7752 18.5053 16.6759 18.3687C16.41 18.01 16.2915 17.4292 16.2595 16.3416C16.2178 15.0093 16.3171 14.0754 16.5349 13.7509C16.647 13.5801 16.8617 13.5573 17.0122 13.6996ZM19.3249 13.7224C19.5331 14.0128 19.6356 14.7986 19.6356 16.074C19.6324 17.7765 19.4659 18.5623 19.1071 18.5623C18.9149 18.5623 18.7868 18.2833 18.6843 17.6456C18.601 17.116 18.601 15.0548 18.6843 14.5253C18.7483 14.1324 18.8637 13.7623 18.9534 13.6712C19.0494 13.5744 19.2352 13.5972 19.3249 13.7224ZM21.8074 13.7224C21.9804 13.9103 22.0508 14.269 22.0541 14.9466C22.0541 15.4249 22.0412 15.5616 21.9804 15.8007C21.8875 16.1537 21.7818 16.353 21.6152 16.4897L21.4871 16.5922L21.5031 16.894C21.5223 17.2413 21.628 17.6057 21.7369 17.7082C21.7786 17.7537 21.8587 17.7651 21.9227 17.748L22.038 17.7139V18.1409V18.5623H21.8394C21.4935 18.5623 21.2533 18.2036 21.1219 17.5032C21.0675 17.2128 21.0611 17.0021 21.0611 15.8577C21.0611 14.6221 21.0643 14.531 21.1347 14.2235C21.234 13.7907 21.3558 13.6085 21.5512 13.6085C21.6472 13.6085 21.7401 13.6541 21.8074 13.7224ZM24.7127 14.7302C25.2316 15.3452 25.6577 15.869 25.6577 15.8975C25.6577 15.9374 25.3566 16.3018 24.8024 16.9224C24.6999 17.0363 24.4244 17.3495 24.1874 17.6171C23.9536 17.8847 23.7485 18.0897 23.7325 18.0726C23.7165 18.0555 23.7037 17.9701 23.7037 17.8733C23.7037 17.7196 23.7518 17.6512 24.3796 16.9167L25.0555 16.1253L24.3796 15.3338L23.7037 14.548V14.1153C23.7037 13.7395 23.7165 13.6085 23.7582 13.6085C23.7614 13.6085 24.1938 14.1096 24.7127 14.7302ZM15.9552 26.773C15.9552 26.8128 15.9616 26.9381 15.9712 27.0463C15.9936 27.3879 16.0384 29.3466 16.0224 29.4206C16.016 29.4605 15.984 29.4947 15.952 29.4947C15.8751 29.4947 15.8527 29.1018 15.8559 27.7694C15.8591 26.8868 15.8687 26.7046 15.9071 26.7046C15.9327 26.7046 15.952 26.7388 15.9552 26.773ZM13.8955 28.2534C13.9724 28.5153 14.0525 28.7772 14.0813 28.8399C14.1293 28.948 14.1325 28.948 14.2543 28.6975C14.4016 28.3957 14.424 28.5096 14.2831 28.8399L14.187 29.0676L14.2703 29.1929C14.3151 29.2669 14.3888 29.3238 14.4304 29.3238C14.5297 29.3238 14.7219 29.0278 14.802 28.7431C14.8565 28.5495 14.8629 28.4754 14.834 28.2534C14.818 28.0996 14.8148 27.963 14.8308 27.9345C14.8597 27.8833 14.8885 27.9801 15.0551 28.7658C15.1127 29.0448 15.1768 29.2669 15.1992 29.2669C15.2408 29.2669 15.3754 28.7715 15.3754 28.6178C15.3754 28.5267 15.433 28.4413 15.4619 28.4868C15.4907 28.5438 15.4042 29.1132 15.3369 29.3068C15.2216 29.6484 15.039 29.489 14.9526 28.9765C14.9205 28.7715 14.8629 28.6747 14.8629 28.8114C14.8629 28.9537 14.6867 29.3238 14.5618 29.4434C14.44 29.5573 14.4112 29.563 14.3247 29.5004C14.2703 29.4605 14.203 29.3808 14.1742 29.3238C14.1229 29.2214 14.1133 29.2214 13.9467 29.3865C13.7481 29.5744 13.5688 29.6028 13.415 29.4605C13.3253 29.3751 13.3029 29.3751 13.1459 29.4662C13.0114 29.5402 12.9153 29.5516 12.6783 29.5231C12.5149 29.5004 12.3676 29.4662 12.3548 29.4548C12.2939 29.3922 12.4156 29.2669 12.5373 29.2669C12.6815 29.2669 12.9217 29.0562 12.9954 28.8626C13.021 28.8057 13.0595 28.7544 13.0819 28.7544C13.1043 28.7544 13.162 28.6975 13.21 28.6349C13.2581 28.5665 13.3029 28.5267 13.3125 28.5438C13.3221 28.5609 13.2869 28.6292 13.2324 28.7032C13.1139 28.8569 13.1107 28.9025 13.2068 29.0448C13.3189 29.2157 13.3926 29.1758 13.6104 28.8228L13.8154 28.4982L13.761 28.3046C13.6937 28.0826 13.6681 27.8605 13.6937 27.7808C13.7257 27.6897 13.7546 27.758 13.8955 28.2534ZM17.182 28.8C17.3293 29.2043 17.4446 29.3295 17.5728 29.2043C17.7073 29.079 17.7201 28.9708 17.6272 28.7374C17.5183 28.4641 17.5632 28.3843 17.6785 28.6349L17.7682 28.8285L17.9059 28.3388C18.0372 27.8548 18.0949 27.7409 18.1013 27.9402C18.1109 28.1907 18.0853 28.3502 17.9828 28.652L17.8771 28.9822L17.9475 29.0676C18.0501 29.1986 18.2486 29.2783 18.3576 29.2384C18.4088 29.2157 18.4505 29.1872 18.4505 29.1701C18.4505 29.153 18.364 28.9936 18.2583 28.8285C18.1526 28.6577 18.0757 28.4925 18.0853 28.4584C18.0981 28.4299 18.1654 28.5039 18.239 28.6292C18.3864 28.8797 18.5113 29.0391 18.5626 29.0391C18.5786 29.0391 18.633 28.9765 18.6811 28.9025L18.7708 28.7715L18.7003 28.6121C18.6619 28.5267 18.6426 28.4641 18.6619 28.4811C18.6779 28.4925 18.7419 28.5495 18.806 28.6007C18.8701 28.652 18.9309 28.7317 18.9405 28.7772C18.9726 28.9196 19.2705 29.1587 19.3986 29.1416C19.4787 29.1359 19.5235 29.1587 19.5427 29.227C19.5652 29.2954 19.6196 29.3238 19.7253 29.3295C19.8086 29.3352 19.6517 29.3637 19.373 29.3922C18.963 29.432 18.8476 29.4263 18.7355 29.358C18.6138 29.284 18.5914 29.284 18.5017 29.3637C18.3415 29.5174 18.0917 29.4833 17.9379 29.2954L17.813 29.1416L17.7137 29.2897C17.5792 29.489 17.4831 29.5231 17.3678 29.4149C17.2525 29.3125 17.1628 29.1132 17.0827 28.8057C17.0507 28.6861 17.0154 28.5836 17.0058 28.5836C16.9962 28.5836 16.9706 28.7203 16.9481 28.8911C16.8809 29.4263 16.7175 29.6541 16.6086 29.3637C16.5638 29.2384 16.4645 28.6577 16.4645 28.521C16.4645 28.3559 16.5445 28.5438 16.6054 28.8399C16.6887 29.2555 16.7495 29.2783 16.804 28.9253C16.8937 28.3559 16.9385 28.094 16.9802 27.9288C17.0218 27.758 17.0218 27.758 17.041 28.1053C17.0539 28.3786 17.0827 28.521 17.182 28.8Z" fill="#2B2523"/>
<path d="M20.2891 14.6562C20.2058 14.8897 20.1706 15.5616 20.193 16.5808C20.2122 17.5659 20.241 17.8221 20.3243 17.8221C20.3659 17.8221 20.3723 17.6114 20.3723 16.1708C20.3723 15.2598 20.3659 14.5196 20.3563 14.5196C20.3499 14.5196 20.3179 14.5822 20.2891 14.6562Z" fill="#2B2523"/>
<path d="M10.8108 14.6164C10.7948 14.6733 10.7788 15.2826 10.7724 15.9715C10.7628 16.9281 10.7692 17.2868 10.8012 17.4804C10.8461 17.731 10.8493 17.731 10.8877 17.6057C10.9325 17.452 10.955 15.0833 10.9133 14.7303C10.8845 14.5025 10.8493 14.4626 10.8108 14.6164Z" fill="#2B2523"/>
<path d="M19.0687 14.6733C19.0558 14.7644 19.0462 15.4192 19.0462 16.1423C19.043 17.1673 19.0526 17.4804 19.0879 17.5943L19.1327 17.731L19.1615 17.5943C19.2128 17.3552 19.232 15.2199 19.1904 14.8441C19.1487 14.4911 19.1039 14.4285 19.0687 14.6733Z" fill="#2B2523"/>
<path d="M5 8H27V24H5V8Z" fill="#2B2523"/>
<path d="M8.70703 26V14.9961H6.70312V13.3203H8.70703V12.0195C8.70703 10.6602 9.07031 9.60938 9.79688 8.86719C10.5234 8.125 11.5508 7.75391 12.8789 7.75391C13.3789 7.75391 13.875 7.82031 14.3672 7.95312L14.25 9.71094C13.8828 9.64062 13.4922 9.60547 13.0781 9.60547C12.375 9.60547 11.832 9.8125 11.4492 10.2266C11.0664 10.6328 10.875 11.2188 10.875 11.9844V13.3203H13.582V14.9961H10.875V26H8.70703ZM20.7891 24.4648C21.5625 24.4648 22.2383 24.2305 22.8164 23.7617C23.3945 23.293 23.7148 22.707 23.7773 22.0039H25.8281C25.7891 22.7305 25.5391 23.4219 25.0781 24.0781C24.6172 24.7344 24 25.2578 23.2266 25.6484C22.4609 26.0391 21.6484 26.2344 20.7891 26.2344C19.0625 26.2344 17.6875 25.6602 16.6641 24.5117C15.6484 23.3555 15.1406 21.7773 15.1406 19.7773V19.4141C15.1406 18.1797 15.3672 17.082 15.8203 16.1211C16.2734 15.1602 16.9219 14.4141 17.7656 13.8828C18.6172 13.3516 19.6211 13.0859 20.7773 13.0859C22.1992 13.0859 23.3789 13.5117 24.3164 14.3633C25.2617 15.2148 25.7656 16.3203 25.8281 17.6797H23.7773C23.7148 16.8594 23.4023 16.1875 22.8398 15.6641C22.2852 15.1328 21.5977 14.8672 20.7773 14.8672C19.6758 14.8672 18.8203 15.2656 18.2109 16.0625C17.6094 16.8516 17.3086 17.9961 17.3086 19.4961V19.9062C17.3086 21.3672 17.6094 22.4922 18.2109 23.2812C18.8125 24.0703 19.6719 24.4648 20.7891 24.4648Z" fill="#E5E5E5"/>
</g>
<defs>
<clipPath id="clip0">
<rect width="32" height="32" fill="white"/>
</clipPath>
</defs>
</svg>
