<?xml version="1.0" standalone="no"?>
<!DOCTYPE svg PUBLIC "-//W3C//DTD SVG 20010904//EN"
 "http://www.w3.org/TR/2001/REC-SVG-20010904/DTD/svg10.dtd">
<svg version="1.0" xmlns="http://www.w3.org/2000/svg"
 width="524.000000pt" height="121.000000pt" viewBox="0 0 524.000000 121.000000"
 preserveAspectRatio="xMidYMid meet">
<metadata>
Created by potrace 1.16, written by Peter Selinger 2001-2019
</metadata>
<g transform="translate(0.000000,121.000000) scale(0.100000,-0.100000)"
fill="#000000" stroke="none">
<path d="M3399 791 c-23 -18 -24 -25 -22 -118 3 -110 -1 -135 -23 -126 -7 3
-14 0 -14 -7 0 -6 8 -14 18 -16 18 -5 18 9 0 -253 -3 -43 -2 -45 32 -53 36
-10 79 -7 145 11 22 6 57 13 77 16 24 4 42 13 49 26 26 49 -24 107 -62 73 -19
-17 -82 -33 -152 -37 -44 -2 -44 -3 -22 128 32 197 48 276 56 281 19 12 9 62
-16 78 -31 20 -38 20 -66 -3z"/>
<path d="M3075 754 c-14 -10 -20 -27 -21 -54 -1 -22 -6 -72 -12 -112 -6 -40
-19 -130 -28 -200 -16 -120 -16 -128 0 -153 10 -14 24 -25 32 -23 12 2 16 25
18 109 2 58 7 113 13 123 9 16 15 12 54 -34 51 -61 131 -153 165 -192 25 -28
61 -44 72 -34 3 4 -6 19 -20 34 -25 27 -138 235 -138 255 0 6 14 22 30 36 58
49 57 186 -1 236 -25 20 -41 25 -87 25 -35 -1 -65 -7 -77 -16z"/>
<path d="M4178 744 c-52 -16 -84 -50 -118 -127 -35 -79 -40 -226 -7 -214 15 5
13 67 -3 77 -8 5 -9 10 -2 14 6 4 10 28 10 54 -1 26 6 60 15 77 9 17 16 24 17
18 0 -7 5 -13 10 -13 7 0 7 6 1 19 -19 35 69 91 143 91 40 0 97 -34 90 -54 -3
-8 -1 -17 5 -21 7 -4 8 0 4 11 -11 29 15 6 34 -29 15 -30 15 -31 0 -18 -19 15
-22 4 -7 -34 5 -14 14 -23 20 -20 6 4 7 -6 4 -25 -5 -23 -3 -30 7 -28 22 5 14
-101 -11 -161 -26 -58 -50 -84 -69 -72 -9 6 -10 11 -2 15 18 12 14 46 -5 39
-12 -5 -15 -14 -10 -44 6 -36 -7 -63 -17 -37 -3 8 -6 5 -6 -6 -1 -15 -4 -16
-15 -7 -10 8 -16 9 -21 1 -20 -32 -127 14 -133 58 -2 12 -11 22 -20 23 -10 0
-12 3 -5 5 16 7 -5 54 -24 54 -31 0 20 -96 71 -135 91 -69 201 -32 264 89 23
45 26 63 27 146 0 86 -3 99 -28 142 -61 105 -129 139 -219 112z"/>
<path d="M881 726 c-20 -21 -22 -32 -19 -124 2 -55 6 -98 11 -95 4 2 7 -3 7
-12 0 -10 -5 -13 -12 -9 -7 5 -8 3 -3 -6 12 -19 20 -114 19 -228 0 -97 1 -103
19 -100 14 2 22 12 24 32 2 17 7 54 11 84 l7 54 25 -24 c14 -14 37 -39 52 -56
25 -30 78 -46 78 -23 0 5 -23 33 -51 62 -39 40 -47 54 -37 61 10 8 9 9 -4 5
-24 -8 -44 19 -28 38 7 8 17 15 22 15 10 0 70 41 80 55 22 31 -55 35 -104 6
l-38 -23 0 51 c0 27 4 60 9 73 5 13 15 50 22 82 l13 59 -30 23 c-36 30 -45 30
-73 0z"/>
<path d="M1838 724 c-21 -11 -28 -22 -28 -44 0 -16 5 -32 11 -35 6 -5 8 -22 3
-49 -16 -93 5 -269 36 -300 5 -5 10 -18 10 -29 0 -10 3 -16 8 -14 4 3 32 0 63
-7 71 -14 159 -9 159 9 0 17 -52 35 -99 35 -70 0 -124 57 -138 144 l-5 34 88
11 c117 16 124 19 94 35 -15 7 -58 12 -104 12 l-78 -1 6 49 c3 27 8 51 11 54
3 3 33 8 68 10 34 2 82 10 106 18 25 9 57 12 77 8 27 -5 34 -3 34 10 0 27 -43
40 -155 46 -60 4 -117 9 -125 13 -8 3 -27 0 -42 -9z"/>
<path d="M1546 718 c2 -4 -5 -9 -16 -13 -18 -6 -19 -12 -13 -77 3 -42 2 -69
-3 -66 -5 4 -7 -16 -5 -45 2 -29 -2 -88 -8 -132 -14 -104 -5 -149 32 -153 20
-2 27 1 27 13 0 13 9 16 43 14 59 -3 98 20 130 79 23 43 27 62 29 148 3 165
-40 229 -159 235 -33 2 -59 1 -57 -3z m121 -111 c23 -45 27 -192 6 -228 -19
-31 -47 -50 -91 -60 -33 -7 -34 -6 -28 19 3 15 10 65 16 112 16 125 30 191 40
185 5 -3 11 -1 15 5 9 15 22 4 42 -33z"/>
<path d="M2564 714 c-9 -28 -45 -97 -60 -115 -8 -8 -14 -31 -14 -50 0 -19 -7
-43 -15 -53 -8 -11 -15 -33 -15 -49 0 -15 -5 -37 -11 -49 -10 -18 -13 -16 -35
32 -13 29 -24 60 -24 69 0 21 -30 51 -52 51 -16 0 -25 -17 -53 -103 -8 -27
-24 -65 -34 -85 l-19 -37 -7 85 c-4 47 -7 109 -8 137 -3 62 -26 95 -55 77 -19
-13 -19 -18 2 -134 14 -70 21 -140 25 -248 1 -8 10 -12 23 -10 27 4 79 85 99
153 l13 44 23 -56 c44 -107 109 -145 149 -85 33 49 51 96 68 183 9 48 26 115
36 150 l19 63 -24 24 c-23 23 -25 23 -31 6z"/>
<path d="M3737 704 c-24 -13 -28 -20 -21 -42 8 -31 8 -24 -2 -162 -14 -180
-12 -251 9 -264 14 -9 21 -7 31 6 9 12 27 18 56 18 56 0 91 22 123 80 24 42
27 59 28 146 2 113 -19 179 -66 210 -37 24 -122 29 -158 8z m120 -66 c21 -34
33 -90 33 -159 0 -96 -22 -135 -93 -161 -54 -20 -55 -19 -36 62 5 24 12 73 14
108 5 74 22 144 39 154 17 11 34 9 43 -4z"/>
<path d="M1231 696 c-9 -11 -9 -16 0 -21 7 -5 -6 -18 -34 -36 -25 -16 -51 -38
-57 -49 -6 -11 -18 -20 -26 -20 -12 0 -15 -6 -10 -25 4 -14 3 -25 -1 -25 -13
0 -5 -96 11 -135 8 -19 15 -38 15 -42 -1 -3 23 -21 52 -40 44 -27 63 -33 110
-33 53 0 59 2 92 39 34 38 57 92 57 137 0 11 -11 43 -25 72 -20 41 -31 53 -57
60 -43 12 -72 -12 -55 -43 6 -11 10 -23 9 -27 -1 -5 3 -7 9 -5 13 2 31 -48 21
-58 -4 -3 -7 -16 -8 -28 -2 -34 -8 -51 -19 -59 -15 -12 -67 -10 -60 2 3 6 2
10 -3 10 -5 0 -17 19 -26 43 -12 32 -13 50 -6 77 15 53 47 100 69 100 11 0 23
5 26 10 4 6 10 8 14 6 4 -3 8 8 9 23 2 30 -26 63 -56 66 -9 0 -22 4 -29 8 -6
4 -16 0 -22 -7z"/>
<path d="M2763 678 c4 -14 -5 -23 -33 -38 -21 -11 -47 -31 -58 -45 -11 -14
-25 -25 -30 -25 -19 0 -10 -182 11 -213 47 -71 158 -106 227 -70 42 22 83 96
82 151 -1 41 -32 108 -60 130 -21 16 -59 15 -65 -2 -6 -16 13 -66 26 -66 11 0
9 -55 -4 -106 -11 -41 -14 -44 -44 -44 -41 0 -64 32 -71 98 -7 64 28 130 77
146 43 14 52 54 18 84 -28 27 -83 27 -76 0z"/>
<path d="M746 461 c-3 -4 -60 -26 -126 -47 -88 -29 -120 -43 -120 -55 0 -18
27 -45 36 -37 9 10 117 -23 166 -49 27 -15 54 -23 64 -19 9 4 14 9 11 13 -4 3
-1 13 6 22 10 14 10 14 -3 5 -12 -9 -30 -3 -84 27 -68 37 -69 38 -40 44 79 19
149 44 158 57 15 25 0 48 -33 48 -16 0 -32 -4 -35 -9z"/>
<path d="M4504 439 c-9 -16 28 -42 82 -58 24 -7 46 -17 49 -21 3 -5 -16 -16
-42 -26 -106 -38 -113 -43 -113 -64 0 -31 28 -36 74 -13 23 11 75 35 116 53
105 46 105 46 105 61 0 10 -27 19 -85 31 -47 9 -100 24 -118 32 -39 19 -58 20
-68 5z"/>
</g>
</svg>
