<svg width="1091" height="344" viewBox="0 0 1091 344" fill="none" xmlns="http://www.w3.org/2000/svg">
<g clip-path="url(#clip0)">
<rect width="1091" height="344" fill="white"/>
<rect width="1091" height="354" transform="translate(0 -5)" fill="black"/>
<path d="M0 172V349H545.5H1091V172V-5H545.5H0V172ZM623.803 29.3922C626.752 30.274 628.062 30.337 632.867 29.6441C639.202 28.7623 642.041 28.6993 655.255 28.9512C660.388 29.0142 663.774 29.2662 662.9 29.4552C662.026 29.6441 660.825 30.211 660.388 30.652C659.951 31.1559 657.658 31.5338 655.364 31.5338C650.778 31.5338 641.386 34.1164 639.092 36.006C638.328 36.6359 636.908 37.2028 636.034 37.2028C635.161 37.2028 633.413 37.7697 632.103 38.4626C630.792 39.1555 629.482 39.5334 629.154 39.4075C628.827 39.2185 629.919 38.3367 631.557 37.4548C633.195 36.573 634.506 35.6911 634.506 35.3762C634.506 35.1242 632.867 34.3683 630.792 33.7384C627.188 32.6046 627.079 32.6046 623.475 33.9274C621.4 34.6203 617.796 36.384 615.503 37.7697C611.462 40.1633 611.244 40.4153 612.664 42.053C614.739 44.6986 615.831 47.848 614.739 48.226C613.647 48.6669 607.531 43.1868 606.657 40.9822C606.33 40.1004 604.691 38.4626 602.944 37.2658L599.995 35.1872L596.391 37.7697C591.586 41.2342 589.839 40.4153 594.317 36.8249L597.811 33.9904L595.409 32.6676C590.494 29.7701 583.723 31.4708 578.154 36.9509C575.86 39.2185 575.533 40.0374 576.188 43.1238C577.28 48.6039 575.205 47.4701 570.618 40.0374C568.325 36.447 565.922 32.9196 565.048 32.3527C563.738 31.2818 563.629 31.2818 562.1 32.4157C561.226 33.1085 559.697 35.1872 558.714 37.0139C556.967 40.1004 554.783 41.4861 554.783 39.4705C554.783 37.7068 559.26 30.4 560.68 29.6441C564.066 28.0694 567.233 29.1402 570.618 33.2345C572.475 35.3762 574.113 37.1399 574.44 37.1399C574.768 37.2028 575.642 36.447 576.297 35.4391C577.061 34.4943 579.464 32.6676 581.648 31.3448C586.672 28.3843 592.46 28.1324 598.139 30.652C601.524 32.1637 602.07 32.2267 603.709 31.2818C609.06 28.5103 618.015 27.6915 623.803 29.3922ZM467.415 30.526C468.944 30.9669 471.238 31.7228 472.548 32.1637C474.732 32.9826 475.278 32.9196 477.463 31.7228C481.285 29.7071 484.561 28.9512 487.51 29.3922C490.786 29.8331 497.12 33.6754 499.96 36.8879C501.489 38.5886 502.362 39.0925 502.69 38.4626C503.018 37.9587 504.001 36.132 504.983 34.4313C509.243 26.8726 514.812 27.3765 518.853 35.6911C520.819 39.7854 520.71 41.3601 518.744 40.6673C518.198 40.4783 517.215 39.0925 516.56 37.6438C515.14 34.5573 513.283 32.1637 512.191 32.1637C511.099 32.1637 509.679 34.2423 505.857 41.5491C502.362 48.226 499.414 50.1157 500.724 44.9505C501.379 42.116 501.052 41.4861 497.557 37.9587C493.626 34.1164 489.148 31.5338 486.418 31.5338C485.544 31.5338 483.36 32.3527 481.394 33.3605L477.9 35.1872L480.848 37.3918C485.763 41.1712 484.452 42.368 479.21 38.9036C477.463 37.8327 475.825 37.1399 475.497 37.5178C472.002 41.7381 466.651 46.8402 465.777 46.7142C463.484 46.4623 465.34 41.8641 468.944 38.4626L472.767 34.9982L470.364 33.9274C465.668 31.7228 454.638 31.0299 452.781 32.7306C452.454 32.9826 455.184 34.4943 458.788 36.132C462.283 37.7697 465.231 39.5334 465.231 40.0374C465.231 41.4861 464.358 41.2342 457.368 37.5178C453.873 35.6281 450.27 34.0534 449.614 34.0534C448.85 34.1164 446.884 34.8093 445.028 35.6281L441.86 37.1399L444.263 38.6516C447.43 40.6043 447.321 41.3601 443.935 40.1004C442.516 39.5334 440.55 39.0925 439.676 39.0925C438.803 39.0925 437.711 38.5256 437.383 37.7697C436.4 36.006 424.278 32.6676 420.783 33.1715C419.036 33.4235 417.398 33.1715 415.978 32.4157C414.777 31.7858 411.719 31.0929 409.207 30.8409C405.712 30.526 407.023 30.4 414.449 30.4C419.909 30.4 427.117 30.211 430.503 29.9591C435.089 29.6441 438.147 29.7701 441.97 30.463C446.884 31.4078 447.649 31.3448 453.218 30.274C459.225 29.0772 462.392 29.1402 467.415 30.526ZM540.913 33.7384C541.35 36.195 541.568 43.1238 541.459 49.1708C541.132 58.3673 540.913 60.1939 539.493 60.3829C538.292 60.5089 537.855 59.879 537.746 58.1783C537.637 56.8555 537.309 53.6431 536.872 51.0605C535.562 41.1082 535.016 30.274 535.671 29.6441C536.108 29.2662 537.2 29.0142 538.183 29.1402C539.603 29.2662 540.258 30.4 540.913 33.7384ZM504.001 130.112C509.024 132.947 506.512 137.545 499.632 138.364C491.551 139.246 486.745 132.821 493.189 129.86C497.011 128.096 500.724 128.222 504.001 130.112ZM316.707 133.262C316.707 136.852 316.379 137.419 314.304 138.049C310.809 139.12 310.154 139.812 310.154 142.836C310.154 145.419 310.263 145.544 313.43 145.544C316.707 145.544 316.707 145.607 316.707 148.946C316.707 152.221 316.597 152.41 313.758 152.599L310.7 152.788L310.154 177.984C309.717 197.826 309.28 203.558 308.079 204.88C305.895 207.337 299.233 209.794 294.21 209.983L289.95 210.109L289.623 205.951C289.295 202.109 289.514 201.794 292.025 201.101C295.848 200.093 296.066 198.267 295.739 173.89L295.411 152.788L292.353 152.599C289.404 152.41 289.295 152.284 289.623 149.135C289.95 146.111 290.169 145.859 293.008 145.67C295.848 145.481 295.957 145.356 295.957 141.576C296.066 134.08 302.619 129.356 313.212 129.23L316.707 129.167V133.262ZM627.298 129.797C630.028 130.364 630.137 130.616 630.137 134.899V139.372L626.752 138.994C623.803 138.679 622.82 138.931 619.871 140.757C615.394 143.466 614.083 146.174 612.445 155.749C611.462 161.733 611.462 165.764 612.445 172.693C613.865 183.023 615.175 185.858 619.435 188.503C621.946 190.078 623.148 190.33 626.315 190.141L630.137 189.889V194.361C630.137 197.007 629.591 199.148 628.827 199.589C626.533 200.912 616.704 200.534 612.554 198.896C604.801 195.936 598.576 188.188 596.064 178.425C594.426 171.937 594.426 157.072 596.064 151.214C600.651 135.655 613.537 126.774 627.298 129.797ZM482.923 160.914C483.251 190.33 483.36 192.094 485.326 193.353C487.291 194.613 487.291 194.676 482.159 197.511C479.21 199.085 476.261 200.345 475.497 200.345C474.732 200.345 472.876 199.463 471.347 198.393L468.508 196.44V163.119V129.797H475.497H482.595L482.923 160.914ZM709.86 159.843C709.86 181.133 710.187 190.456 711.17 191.905C712.262 193.731 712.044 194.235 708.877 197.133C706.911 198.896 704.618 200.345 703.853 200.345C703.089 200.345 701.123 199.463 699.485 198.33L696.536 196.314L693.806 198.33C691.731 199.904 690.311 200.345 687.363 200.345C682.448 200.345 678.844 198.141 676.442 193.794C673.821 189.007 673.056 167.78 675.241 160.662C677.862 151.906 683.54 146.678 691.404 145.733L694.571 145.356V137.608V129.797H702.215H709.86V159.843ZM455.402 141.135V145.544H459.225H463.047V148.946C463.047 152.347 463.047 152.41 459.552 152.599L455.948 152.788L455.621 170.803C455.512 181.637 455.839 189.511 456.494 190.519C457.259 191.716 458.351 192.157 460.317 192.157C462.938 192.157 463.047 192.346 463.047 195.621C463.047 199.589 461.627 200.345 453.983 200.345C448.195 200.345 444.045 198.33 442.297 194.739C441.642 193.416 441.205 183.968 441.205 172.441V152.473H437.383C432.359 152.473 432.468 151.402 437.711 147.875C439.895 146.363 444.045 143.214 446.884 140.883C453.764 135.34 455.402 135.403 455.402 141.135ZM801.159 138.175C801.705 139.12 794.606 150.584 762.826 200.156C755.619 211.431 755.291 211.683 752.342 211.683C749.94 211.683 749.175 211.368 749.175 210.486C749.175 209.794 753.107 203.054 758.021 195.495C762.936 187.936 768.724 178.803 771.017 175.149C776.914 165.638 792.531 141.135 793.842 139.057C794.715 137.797 795.698 137.356 797.773 137.356C799.302 137.356 800.831 137.734 801.159 138.175ZM279.357 147.875C279.685 149.702 278.92 150.08 256.751 158.457C244.083 163.181 233.926 167.276 234.254 167.591C234.472 167.843 244.847 171.811 257.078 176.472L279.466 184.913L279.576 189.763C279.576 192.409 279.03 194.802 278.483 194.991C277.173 195.495 212.958 170.866 212.958 169.858C212.958 169.48 221.804 165.89 232.616 161.922C243.427 157.953 257.843 152.599 264.614 150.143C271.276 147.623 277.391 145.67 277.937 145.733C278.593 145.859 279.139 146.804 279.357 147.875ZM331.996 146.804C333.197 147.497 334.508 148.946 334.945 149.954C335.709 152.221 337.02 152.41 337.893 150.395C338.876 148.127 343.572 145.544 346.739 145.544C349.469 145.544 349.469 145.607 349.469 150.521V155.497L346.084 156.316C344.118 156.757 341.279 158.331 339.531 159.969L336.364 162.804V181.574V200.345H329.375H322.276L321.949 176.724C321.73 158.961 321.293 152.977 320.311 152.347C318.236 151.214 318.454 150.836 322.822 148.064C327.3 145.23 328.829 144.978 331.996 146.804ZM377.318 147.056C384.198 151.025 387.693 159.654 387.693 172.882C387.693 185.858 384.089 194.928 377.427 198.77C375.352 199.967 373.495 200.345 370.11 200.345C363.776 200.345 359.08 197.385 355.804 191.338C353.51 187.18 353.292 185.606 353.292 172.945C353.292 160.284 353.51 158.709 355.804 154.552C359.08 148.505 363.776 145.544 370.11 145.544C373.495 145.544 375.352 145.922 377.318 147.056ZM404.839 147.182L407.569 148.757L410.517 147.182C414.449 145.041 421.22 144.915 424.605 146.93C428.974 149.702 429.192 151.088 429.192 176.157V200.345H422.094H414.995V177.732C414.995 158.52 414.777 155.056 413.357 154.363C412.483 153.922 410.954 153.733 410.081 153.985C408.661 154.3 408.442 157.386 408.442 177.354V200.345H401.344H394.245V177.48C394.245 159.528 393.918 154.3 392.716 153.04C391.406 151.528 391.515 151.214 395.228 148.442C397.303 146.867 399.706 145.544 400.579 145.544C401.344 145.544 403.2 146.3 404.839 147.182ZM505.639 172.945V200.345H498.54H491.441V172.945V145.544H498.54H505.639V172.945ZM523.877 147.182L526.607 148.757L529.555 147.182C533.487 145.041 540.258 144.915 543.643 146.93C548.012 149.702 548.23 151.088 548.23 176.157V200.345H541.132H534.033V178.425C534.033 166.394 533.705 155.938 533.378 155.119C532.832 154.111 531.958 153.733 530.32 153.859C528.027 154.048 528.027 154.174 527.699 177.165L527.48 200.345H520.382H513.392L513.065 176.85C512.846 159.087 512.41 153.04 511.318 152.347C510.225 151.528 510.662 150.899 514.048 148.442C516.341 146.867 518.853 145.544 519.617 145.544C520.382 145.544 522.238 146.3 523.877 147.182ZM580.01 146.552C584.488 147.875 588.747 153.229 589.402 158.394C590.603 166.898 585.361 173.701 575.096 177.039C569.417 178.929 569.089 179.118 569.635 181.007C571.164 185.795 572.475 187.747 575.533 189.637C578.59 191.527 579.355 191.653 583.723 191.401L588.638 191.023V195.747V200.471L580.665 200.219C573.785 200.03 571.929 199.715 568.543 198.204C559.479 194.235 555.438 187.81 554.346 175.779C552.926 161.04 556.312 150.71 563.738 147.119C567.56 145.23 574.877 144.978 580.01 146.552ZM658.859 146.804C665.958 150.017 669.452 158.709 669.452 172.819C669.343 191.653 663.664 200.345 651.433 200.345C644.88 200.345 640.512 197.259 637.017 190.204C634.178 184.346 634.178 161.544 637.017 155.686C639.202 151.34 643.133 147.245 646.191 146.237C649.467 145.167 655.801 145.419 658.859 146.804ZM743.496 146.804C749.394 148.883 751.796 152.851 751.905 160.347C751.905 165.638 751.469 167.15 749.394 169.795C746.227 173.701 742.623 175.905 736.944 177.417L732.575 178.551L733.121 181.889C733.777 185.732 737.381 189.763 741.094 190.897C742.513 191.401 745.244 191.527 747.428 191.338L751.359 190.96V195.684V200.345H744.588C732.794 200.345 724.603 196.377 720.126 188.629C718.269 185.417 718.051 183.086 718.051 170.425C718.051 156.757 718.16 155.749 720.562 152.347C723.948 147.56 728.098 145.544 734.76 145.544C738.036 145.544 741.203 146.048 743.496 146.804ZM842.549 157.953C860.241 164.756 874.766 170.551 874.766 170.866C874.766 171.307 864.5 175.338 845.607 182.204C842.112 183.464 832.72 186.928 824.639 189.889C816.666 192.849 809.677 195.117 809.131 194.928C808.585 194.739 808.148 193.794 808.148 192.723C808.148 191.023 809.786 190.267 831.191 182.141L854.234 173.386L831.191 164.63L808.148 155.938V151.151C808.148 146.993 808.585 145.544 810.005 145.544C810.114 145.544 824.857 151.088 842.549 157.953ZM543.971 291.176C543.971 291.617 544.189 293.002 544.517 294.199C545.282 297.979 546.811 319.647 546.264 320.466C546.046 320.907 544.954 321.285 543.862 321.285C541.241 321.285 540.476 316.938 540.586 302.199C540.695 292.436 541.022 290.42 542.333 290.42C543.207 290.42 543.862 290.798 543.971 291.176ZM473.75 307.553C476.371 310.451 479.101 313.348 480.084 314.041C481.722 315.238 481.831 315.238 485.981 312.466C491.005 309.128 491.769 310.388 486.964 314.041L483.688 316.56L486.527 317.946C488.056 318.765 490.568 319.395 491.987 319.395C495.373 319.395 501.926 316.12 504.656 312.97C506.512 310.828 506.731 310.01 505.748 307.553C505.202 305.852 505.093 304.341 505.639 304.026C506.622 303.459 507.604 304.53 513.283 313.222C515.249 316.309 517.433 318.765 518.198 318.765C519.617 318.765 524.204 313.285 524.204 311.584C524.204 310.577 526.17 309.632 527.153 310.136C528.136 310.765 525.187 317.064 522.894 319.206C518.962 322.985 512.737 321.222 509.789 315.553C508.696 313.285 506.731 312.214 506.731 313.726C506.731 315.301 500.724 319.395 496.465 320.718C492.315 321.978 491.332 322.041 488.384 321.348C486.527 320.907 484.234 320.025 483.251 319.395C481.503 318.261 481.176 318.261 475.497 320.088C468.726 322.167 462.61 322.481 457.368 320.907C454.31 319.962 453.546 319.962 448.195 320.97C443.608 321.789 440.332 321.915 432.25 321.6C426.68 321.348 421.657 320.97 421.22 320.844C419.145 320.151 423.295 318.765 427.445 318.765C432.359 318.765 440.55 316.435 443.062 314.293C443.935 313.663 445.246 313.096 446.01 313.096C446.775 313.096 448.741 312.466 450.379 311.773C452.017 311.017 453.546 310.577 453.873 310.765C454.201 310.954 453 311.71 451.143 312.529C447.103 314.23 446.993 314.734 450.27 316.309C454.092 318.198 456.604 317.757 464.03 313.852L471.019 310.262L469.163 308.12C466.869 305.663 465.996 303.207 466.869 302.325C467.961 301.317 468.944 302.073 473.75 307.553ZM585.798 313.6C590.822 318.072 594.753 319.458 599.122 318.072C603.709 316.686 604.145 315.49 600.978 312.907C597.265 309.884 598.794 309.002 602.726 311.773L605.783 313.915L610.479 308.498C614.957 303.144 616.923 301.884 617.141 304.089C617.469 306.86 616.595 308.624 613.101 311.962L609.497 315.616L611.899 316.56C615.394 318.009 622.165 318.891 625.878 318.45C627.625 318.198 629.045 317.883 629.045 317.694C629.045 317.505 626.096 315.742 622.492 313.915C618.889 312.025 616.268 310.199 616.595 309.821C617.032 309.506 619.325 310.325 621.837 311.71C626.861 314.482 631.12 316.246 632.867 316.246C633.413 316.246 635.27 315.553 636.908 314.734L639.966 313.285L637.563 311.521C636.253 310.577 635.598 309.884 636.253 310.073C636.799 310.199 638.983 310.828 641.167 311.395C643.351 311.962 645.426 312.844 645.754 313.348C646.846 314.923 657.003 317.568 661.371 317.379C664.101 317.316 665.63 317.568 666.285 318.324C667.05 319.08 668.906 319.395 672.51 319.458C675.35 319.521 669.999 319.836 660.497 320.151C646.519 320.592 642.587 320.529 638.765 319.773C634.615 318.954 633.85 318.954 630.792 319.836C625.332 321.537 616.814 321.159 611.572 319.08L607.312 317.379L603.927 319.017C599.34 321.222 596.064 321.6 592.132 320.403C588.201 319.269 585.143 317.064 582.413 313.663C581.321 312.34 580.119 311.206 579.792 311.206C579.464 311.206 578.59 312.718 577.826 314.608C575.533 320.529 569.963 323.048 566.25 319.836C564.721 318.45 561.335 312.025 561.335 310.514C561.335 308.687 564.066 310.765 566.141 314.041C568.98 318.639 571.055 318.891 572.912 314.986C575.969 308.687 577.498 305.789 578.918 303.963C580.338 302.073 580.338 302.073 580.993 305.915C581.43 308.939 582.413 310.514 585.798 313.6Z" fill="white"/>
<path d="M691.731 157.135C688.892 159.717 687.69 167.15 688.455 178.425C689.11 189.322 690.093 192.157 692.932 192.157C694.352 192.157 694.571 189.826 694.571 173.89C694.571 163.811 694.352 155.623 694.025 155.623C693.806 155.623 692.714 156.316 691.731 157.135Z" fill="white"/>
<path d="M368.581 156.694C368.035 157.323 367.489 164.063 367.271 171.685C366.943 182.267 367.161 186.236 368.253 188.377C369.782 191.149 369.892 191.149 371.202 189.763C372.731 188.062 373.495 161.859 372.076 157.953C371.093 155.434 369.892 154.993 368.581 156.694Z" fill="white"/>
<path d="M650.122 157.323C649.686 158.331 649.358 165.575 649.358 173.575C649.249 184.913 649.576 188.377 650.778 189.637L652.307 191.149L653.29 189.637C655.037 186.991 655.692 163.37 654.272 159.213C652.853 155.308 651.324 154.615 650.122 157.323Z" fill="white"/>
</g>
<defs>
<clipPath id="clip0">
<rect width="1091" height="344" fill="white"/>
</clipPath>
</defs>
</svg>
